<svg id="svg" version="1.1" xmlns="http://www.w3.org/2000/svg" xmlns:xlink="http://www.w3.org/1999/xlink" width="400" height="400" viewBox="0, 0, 400,400"><g id="svgg"><path id="path0" d="M44.849 147.622 C 6.807 153.403,-12.572 197.005,8.611 229.152 C 30.970 263.082,81.980 260.036,100.212 223.682 C 119.339 185.545,87.065 141.205,44.849 147.622 M196.216 147.362 C 159.052 151.548,137.889 193.602,156.530 226.227 C 175.547 259.509,223.486 262.087,245.564 231.015 C 272.272 193.427,242.053 142.200,196.216 147.362 M339.313 147.602 C 300.914 153.481,281.605 197.385,303.252 229.597 C 325.725 263.038,376.346 259.843,394.453 223.841 C 413.664 185.645,381.481 141.147,339.313 147.602 " stroke="none" fill="#7c6cac" fill-rule="evenodd"></path><path id="path1" d="" stroke="none" fill="#806cac" fill-rule="evenodd"></path><path id="path2" d="" stroke="none" fill="#806cac" fill-rule="evenodd"></path><path id="path3" d="" stroke="none" fill="#806cac" fill-rule="evenodd"></path><path id="path4" d="" stroke="none" fill="#806cac" fill-rule="evenodd"></path></g></svg>