<svg viewBox="0 0 24 24" color="primary" width="24px" xmlns="http://www.w3.org/2000/svg" class="sc-bdnxRM ACFFk"><path d="M19 11H7.82998L12.71 6.12C13.1 5.73 13.1 5.09 12.71 4.7C12.32 4.31 11.69 4.31 11.3 4.7L4.70998 11.29C4.31998 11.68 4.31998 12.31 4.70998 12.7L11.3 19.29C11.69 19.68 12.32 19.68 12.71 19.29C13.1 18.9 13.1 18.27 12.71 17.88L7.82998 13H19C19.55 13 20 12.55 20 12C20 11.45 19.55 11 19 11Z"></path></svg>
        </div>
      <svg viewBox="0 0 24 25" height="24px" width="24px" color="textSubtle" xmlns="http://www.w3.org/2000/svg"
        class="icona-svg-freccia-switch">
        <path
          d="M16 17.01V11C16 10.45 15.55 10 15 10C14.45 10 14 10.45 14 11V17.01H12.21C11.76 17.01 11.54 17.55 11.86 17.86L14.65 20.64C14.85 20.83 15.16 20.83 15.36 20.64L18.15 17.86C18.47 17.55 18.24 17.01 17.8 17.01H16ZM8.65003 3.35002L5.86003 6.14002C5.54003 6.45002 5.76003 6.99002 6.21003 6.99002H8.00003V13C8.00003 13.55 8.45003 14 9.00003 14C9.55003 14 10 13.55 10 13V6.99002H11.79C12.24 6.99002 12.46 6.45002 12.14 6.14002L9.35003 3.35002C9.16003 3.16002 8.84003 3.16002 8.65003 3.35002Z">
        </path>
      </svg>